<svg width="18" height="20" viewBox="0 0 18 20" fill="none" xmlns="http://www.w3.org/2000/svg">
<path d="M16.5 8.33325C16.5 14.1666 9 19.1666 9 19.1666C9 19.1666 1.5 14.1666 1.5 8.33325C1.5 6.34413 2.29018 4.43647 3.6967 3.02995C5.10322 1.62343 7.01088 0.833252 9 0.833252C10.9891 0.833252 12.8968 1.62343 14.3033 3.02995C15.7098 4.43647 16.5 6.34413 16.5 8.33325Z" stroke="#344054" stroke-width="1.67" stroke-linecap="round" stroke-linejoin="round"/>
<path d="M9 10.8333C10.3807 10.8333 11.5 9.71396 11.5 8.33325C11.5 6.95254 10.3807 5.83325 9 5.83325C7.61929 5.83325 6.5 6.95254 6.5 8.33325C6.5 9.71396 7.61929 10.8333 9 10.8333Z" stroke="#344054" stroke-width="1.67" stroke-linecap="round" stroke-linejoin="round"/>
</svg>
